<mxfile host="app.diagrams.net" agent="Mozilla/5.0 (Macintosh; Intel Mac OS X 10_15_7) AppleWebKit/537.36 (KHTML, like Gecko) Chrome/136.0.0.0 Safari/537.36" version="27.0.5">
  <diagram name="Page-1" id="WKwUyeOfBGcVnVsdCao-">
    <mxGraphModel dx="3295" dy="1662" grid="1" gridSize="10" guides="1" tooltips="1" connect="1" arrows="1" fold="1" page="1" pageScale="1" pageWidth="827" pageHeight="1169" math="0" shadow="0">
      <root>
        <mxCell id="0" />
        <mxCell id="1" parent="0" />
        <mxCell id="njdxu8bwfrrV_fGx8YJF-18" value="" style="rounded=0;whiteSpace=wrap;html=1;fillColor=#f5f5f5;fontColor=#333333;strokeColor=#666666;" vertex="1" parent="1">
          <mxGeometry x="-413" y="280" width="360" height="270" as="geometry" />
        </mxCell>
        <mxCell id="njdxu8bwfrrV_fGx8YJF-17" value="" style="rounded=0;whiteSpace=wrap;html=1;fillColor=#f5f5f5;fontColor=#333333;strokeColor=#666666;" vertex="1" parent="1">
          <mxGeometry x="-18" y="259" width="470" height="300" as="geometry" />
        </mxCell>
        <mxCell id="njdxu8bwfrrV_fGx8YJF-14" value="" style="edgeStyle=orthogonalEdgeStyle;rounded=0;orthogonalLoop=1;jettySize=auto;html=1;startArrow=classic;startFill=1;" edge="1" parent="1" source="njdxu8bwfrrV_fGx8YJF-1" target="njdxu8bwfrrV_fGx8YJF-13">
          <mxGeometry relative="1" as="geometry" />
        </mxCell>
        <mxCell id="njdxu8bwfrrV_fGx8YJF-21" value="Leverages Power of LLM" style="edgeLabel;html=1;align=center;verticalAlign=middle;resizable=0;points=[];" vertex="1" connectable="0" parent="njdxu8bwfrrV_fGx8YJF-14">
          <mxGeometry x="0.2" y="-1" relative="1" as="geometry">
            <mxPoint as="offset" />
          </mxGeometry>
        </mxCell>
        <mxCell id="njdxu8bwfrrV_fGx8YJF-15" value="" style="edgeStyle=orthogonalEdgeStyle;rounded=0;orthogonalLoop=1;jettySize=auto;html=1;startArrow=classic;startFill=1;" edge="1" parent="1" source="njdxu8bwfrrV_fGx8YJF-1" target="njdxu8bwfrrV_fGx8YJF-3">
          <mxGeometry relative="1" as="geometry" />
        </mxCell>
        <mxCell id="njdxu8bwfrrV_fGx8YJF-1" value="MCP - Client" style="rounded=1;whiteSpace=wrap;html=1;fillColor=#f8cecc;strokeColor=#b85450;" vertex="1" parent="1">
          <mxGeometry x="-343" y="470" width="120" height="60" as="geometry" />
        </mxCell>
        <mxCell id="njdxu8bwfrrV_fGx8YJF-9" value="" style="edgeStyle=orthogonalEdgeStyle;rounded=0;orthogonalLoop=1;jettySize=auto;html=1;" edge="1" parent="1" source="njdxu8bwfrrV_fGx8YJF-2" target="njdxu8bwfrrV_fGx8YJF-6">
          <mxGeometry relative="1" as="geometry" />
        </mxCell>
        <mxCell id="njdxu8bwfrrV_fGx8YJF-10" value="" style="edgeStyle=orthogonalEdgeStyle;rounded=0;orthogonalLoop=1;jettySize=auto;html=1;" edge="1" parent="1" source="njdxu8bwfrrV_fGx8YJF-2" target="njdxu8bwfrrV_fGx8YJF-7">
          <mxGeometry relative="1" as="geometry" />
        </mxCell>
        <mxCell id="njdxu8bwfrrV_fGx8YJF-12" value="" style="edgeStyle=orthogonalEdgeStyle;rounded=0;orthogonalLoop=1;jettySize=auto;html=1;" edge="1" parent="1" source="njdxu8bwfrrV_fGx8YJF-2" target="njdxu8bwfrrV_fGx8YJF-8">
          <mxGeometry relative="1" as="geometry" />
        </mxCell>
        <mxCell id="njdxu8bwfrrV_fGx8YJF-2" value="MCP - Server" style="rounded=1;whiteSpace=wrap;html=1;fillColor=#f8cecc;strokeColor=#b85450;" vertex="1" parent="1">
          <mxGeometry x="157" y="379" width="120" height="60" as="geometry" />
        </mxCell>
        <mxCell id="njdxu8bwfrrV_fGx8YJF-5" value="" style="edgeStyle=orthogonalEdgeStyle;rounded=0;orthogonalLoop=1;jettySize=auto;html=1;startArrow=classic;startFill=1;" edge="1" parent="1" source="njdxu8bwfrrV_fGx8YJF-3" target="njdxu8bwfrrV_fGx8YJF-4">
          <mxGeometry relative="1" as="geometry" />
        </mxCell>
        <mxCell id="njdxu8bwfrrV_fGx8YJF-3" value="Standard Input/Output Transporter - Client&amp;nbsp;" style="rounded=0;whiteSpace=wrap;html=1;fillColor=#dae8fc;strokeColor=#6c8ebf;" vertex="1" parent="1">
          <mxGeometry x="-193" y="470" width="120" height="60" as="geometry" />
        </mxCell>
        <mxCell id="njdxu8bwfrrV_fGx8YJF-16" value="" style="edgeStyle=orthogonalEdgeStyle;rounded=0;orthogonalLoop=1;jettySize=auto;html=1;startArrow=classic;startFill=1;" edge="1" parent="1" source="njdxu8bwfrrV_fGx8YJF-4" target="njdxu8bwfrrV_fGx8YJF-2">
          <mxGeometry relative="1" as="geometry" />
        </mxCell>
        <mxCell id="njdxu8bwfrrV_fGx8YJF-4" value="Standard Input/Output Transporter - Server&amp;nbsp;" style="rounded=0;whiteSpace=wrap;html=1;fillColor=#dae8fc;strokeColor=#6c8ebf;" vertex="1" parent="1">
          <mxGeometry x="-3" y="420" width="120" height="60" as="geometry" />
        </mxCell>
        <mxCell id="njdxu8bwfrrV_fGx8YJF-23" value="" style="edgeStyle=orthogonalEdgeStyle;rounded=0;orthogonalLoop=1;jettySize=auto;html=1;" edge="1" parent="1" source="njdxu8bwfrrV_fGx8YJF-6">
          <mxGeometry relative="1" as="geometry">
            <mxPoint x="217" y="219" as="targetPoint" />
          </mxGeometry>
        </mxCell>
        <mxCell id="njdxu8bwfrrV_fGx8YJF-6" value="Tool 1&lt;div&gt;read_file&lt;/div&gt;" style="rounded=1;whiteSpace=wrap;html=1;fillColor=#d5e8d4;strokeColor=#82b366;" vertex="1" parent="1">
          <mxGeometry x="157" y="289" width="120" height="60" as="geometry" />
        </mxCell>
        <mxCell id="njdxu8bwfrrV_fGx8YJF-27" value="" style="edgeStyle=orthogonalEdgeStyle;rounded=0;orthogonalLoop=1;jettySize=auto;html=1;" edge="1" parent="1" source="njdxu8bwfrrV_fGx8YJF-7" target="njdxu8bwfrrV_fGx8YJF-26">
          <mxGeometry relative="1" as="geometry" />
        </mxCell>
        <mxCell id="njdxu8bwfrrV_fGx8YJF-7" value="Tool 2&lt;div&gt;list_directory&lt;/div&gt;" style="rounded=1;whiteSpace=wrap;html=1;fillColor=#d5e8d4;strokeColor=#82b366;" vertex="1" parent="1">
          <mxGeometry x="157" y="469" width="120" height="60" as="geometry" />
        </mxCell>
        <mxCell id="njdxu8bwfrrV_fGx8YJF-25" value="" style="edgeStyle=orthogonalEdgeStyle;rounded=0;orthogonalLoop=1;jettySize=auto;html=1;" edge="1" parent="1" source="njdxu8bwfrrV_fGx8YJF-8" target="njdxu8bwfrrV_fGx8YJF-24">
          <mxGeometry relative="1" as="geometry" />
        </mxCell>
        <mxCell id="njdxu8bwfrrV_fGx8YJF-8" value="Tool 3&lt;div&gt;write_file&lt;/div&gt;" style="rounded=1;whiteSpace=wrap;html=1;fillColor=#d5e8d4;strokeColor=#82b366;" vertex="1" parent="1">
          <mxGeometry x="307" y="379" width="120" height="60" as="geometry" />
        </mxCell>
        <mxCell id="njdxu8bwfrrV_fGx8YJF-13" value="OLLAMA + Microsoft Phi3" style="rounded=1;whiteSpace=wrap;html=1;" vertex="1" parent="1">
          <mxGeometry x="-388" y="310" width="210" height="100" as="geometry" />
        </mxCell>
        <mxCell id="njdxu8bwfrrV_fGx8YJF-20" value="User talks with MCP Client" style="edgeStyle=orthogonalEdgeStyle;rounded=0;orthogonalLoop=1;jettySize=auto;html=1;startArrow=classic;startFill=1;" edge="1" parent="1" source="njdxu8bwfrrV_fGx8YJF-19" target="njdxu8bwfrrV_fGx8YJF-1">
          <mxGeometry relative="1" as="geometry" />
        </mxCell>
        <mxCell id="njdxu8bwfrrV_fGx8YJF-19" value="" style="shape=actor;whiteSpace=wrap;html=1;" vertex="1" parent="1">
          <mxGeometry x="-303" y="640" width="40" height="60" as="geometry" />
        </mxCell>
        <mxCell id="njdxu8bwfrrV_fGx8YJF-24" value="" style="sketch=0;pointerEvents=1;shadow=0;dashed=0;html=1;strokeColor=none;fillColor=#505050;labelPosition=center;verticalLabelPosition=bottom;verticalAlign=top;outlineConnect=0;align=center;shape=mxgraph.office.concepts.writing_pencil;" vertex="1" parent="1">
          <mxGeometry x="487" y="384" width="50" height="50" as="geometry" />
        </mxCell>
        <mxCell id="njdxu8bwfrrV_fGx8YJF-26" value="&lt;ul&gt;&lt;li&gt;Value 1&lt;/li&gt;&lt;li&gt;Value 2&lt;/li&gt;&lt;li&gt;Value 3&lt;/li&gt;&lt;/ul&gt;" style="text;strokeColor=none;fillColor=none;html=1;whiteSpace=wrap;verticalAlign=middle;overflow=hidden;" vertex="1" parent="1">
          <mxGeometry x="167" y="589" width="100" height="80" as="geometry" />
        </mxCell>
        <mxCell id="njdxu8bwfrrV_fGx8YJF-28" value="" style="shape=image;html=1;verticalAlign=top;verticalLabelPosition=bottom;labelBackgroundColor=#ffffff;imageAspect=0;aspect=fixed;image=https://cdn1.iconfinder.com/data/icons/heroicons-ui/24/book-open-128.png;imageBorder=none;imageBackground=none;" vertex="1" parent="1">
          <mxGeometry x="187" y="150" width="69" height="69" as="geometry" />
        </mxCell>
      </root>
    </mxGraphModel>
  </diagram>
</mxfile>
